# xmcd
# 
# Track frame offsets:
#     150
#     16007
#     30344
#     42645
#     61427
#     79303
#     94948
#     109641
#     130057
#     132853
#     148523
#     164432
#     181405
#     195084
#     211638
# 
# Disc length: 3004
# 
# Revision: 1
# Processed by: cddbd v1.5.2PL0 Copyright (c) Steve Scherf et al.
# Submitted via: BonkEnc v1.0
# 
DISCID=c00bba0f
DTITLE=Dion - Son of Skip James
DYEAR=2007
DGENRE=Blues
TTITLE0=Nadine
TTITLE1=My Babe
TTITLE2=Hoodoo Man Blues
TTITLE3=Drop Down Mama
TTITLE4=Hoochie Coochie Man
TTITLE5=Baby I'm In The Mood
TTITLE6=I'm A Guitar King
TTITLE7=The Thunderer
TTITLE8=Interlude (Dylan Story)
TTITLE9=Son Of Skip James
TTITLE10=Preachin' Blues
TTITLE11=If I Had Possession Over Judgement Day
TTITLE12=Devil Got My Woman
TTITLE13=I Just Want To Make Love To You
TTITLE14=Dust My Broom
EXTD=YEAR: 2007
EXTT0=
EXTT1=
EXTT2=
EXTT3=
EXTT4=
EXTT5=
EXTT6=
EXTT7=
EXTT8=
EXTT9=
EXTT10=
EXTT11=
EXTT12=
EXTT13=
EXTT14=
PLAYORDER=
